# xmcd CD database file
#
# Track frame offsets:
#	150
#	17670
#	41447
#	70045
#	99765
#	148672
#
# Disc length: 2523 seconds
#
# Revision: 3
# Processed by: cddbd v1.4PL0 Copyright (c) Steve Scherf et al.
# Submitted via: CDex 1.50
#
DISCID=4209d906
DTITLE=DJ Sammy and Yanou feat. Do - Heaven (Single)
DYEAR=2002
DGENRE=Trance
TTITLE0=Heaven [Radio Version]
TTITLE1=Heaven [Extended Mix]
TTITLE2=Heaven [Green Court Remix]
TTITLE3=Heaven [Commander Tom Remix]
TTITLE4=Heaven [Anastasia Remix]
TTITLE5=Heaven [Simon and Shaker Remix]
EXTD=YEAR: 2002
EXTT0=
EXTT1=
EXTT2=
EXTT3=
EXTT4=
EXTT5=
PLAYORDER=
